<?xml version="1.0" encoding="UTF-8"?>
<svg version="1.1" xmlns="http://www.w3.org/2000/svg" width="512" height="512">
<path d="M0 0 C4.59335674 2.77185321 9.69288863 7.33698398 11.14672852 12.625 C11.3525354 13.553125 11.3525354 13.553125 11.5625 14.5 C12.61850403 14.49111755 13.67450806 14.48223511 14.76251221 14.4730835 C24.70931962 14.39203319 34.65606013 14.33205168 44.60312271 14.29275131 C49.7171631 14.27186736 54.83093713 14.24353484 59.94482422 14.19824219 C64.87908296 14.15481345 69.81308535 14.13086898 74.74752045 14.12049103 C76.63103014 14.11309432 78.51452564 14.09865039 80.39792633 14.07707977 C83.03414848 14.04808508 85.66930838 14.04404231 88.30566406 14.04589844 C89.08609573 14.03151733 89.8665274 14.01713623 90.67060852 14.00231934 C94.12698175 14.02869004 96.18845013 14.23723451 99.0501709 16.24755859 C100.74900337 18.77777547 101.05126292 19.97762577 101.01660156 22.99316406 C101.01611816 23.88600098 101.01563477 24.77883789 101.01513672 25.69873047 C100.99467285 26.62830566 100.97420898 27.55788086 100.953125 28.515625 C100.94909668 29.37655762 100.94506836 30.23749023 100.94091797 31.12451172 C100.92002717 34.33322534 100.86418144 37.5416346 100.8125 40.75 C100.73 47.9275 100.6475 55.105 100.5625 62.5 C121.6825 62.5 142.8025 62.5 164.5625 62.5 C164.40431389 48.19940355 164.40431389 48.19940355 164.20214844 33.89941406 C164.19046452 32.10482737 164.18027199 30.31023008 164.171875 28.515625 C164.15141113 27.5860498 164.13094727 26.65647461 164.10986328 25.69873047 C164.10913818 24.3594751 164.10913818 24.3594751 164.10839844 22.99316406 C164.09951599 22.22039124 164.09063354 21.44761841 164.08148193 20.65142822 C164.79638185 17.45392698 165.88426404 16.38142823 168.5625 14.5 C171.4457673 14.12596452 173.94056623 13.99285102 176.81933594 14.04589844 C178.06379234 14.04502228 178.06379234 14.04502228 179.33338928 14.04412842 C182.07164563 14.04691192 184.80880917 14.07801589 187.546875 14.109375 C189.44687302 14.11683646 191.34687874 14.12252984 193.24688721 14.12652588 C198.24478446 14.14178972 203.24221586 14.18107807 208.2399292 14.2253418 C213.34087828 14.26627828 218.44190271 14.28453343 223.54296875 14.3046875 C233.54968371 14.34757153 243.5560531 14.41583202 253.5625 14.5 C253.86196533 13.5514917 254.16143066 12.6029834 254.4699707 11.62573242 C256.44874877 5.96443732 260.65832558 2.70468177 265.625 -0.4375 C272.33557977 -2.86666915 281.45569598 -2.87591485 288 0 C294.89370696 4.2309017 299.26198281 10.16273153 301.19140625 17.98828125 C302.24210716 25.09986738 300.73949945 31.6283322 296.5625 37.5 C291.79887382 42.56259854 287.37301858 46.10847718 280.29296875 46.8359375 C271.74364273 46.93019688 265.86940155 46.60501554 259.5625 40.59375 C256.38284459 37.15767077 254.72068909 35.13275636 253.5625 30.5 C229.4725 30.5 205.3825 30.5 180.5625 30.5 C180.5625 41.06 180.5625 51.62 180.5625 62.5 C182.90889587 62.49111755 185.25529175 62.48223511 187.67279053 62.4730835 C209.74573457 62.39142888 231.81865875 62.33185602 253.89171982 62.29275131 C265.24069932 62.27211173 276.58956811 62.24396441 287.93847656 62.19824219 C297.82830193 62.15841722 307.71804713 62.13257735 317.60795045 62.12364602 C322.84631664 62.11842393 328.08445348 62.10612107 333.32274628 62.07707977 C338.25078247 62.04997928 343.17849427 62.04154414 348.1065979 62.04756927 C349.91745007 62.04646663 351.72831281 62.03848087 353.53910065 62.0231781 C356.00789347 62.00333375 358.47545476 62.0080399 360.9442749 62.01898193 C361.66412182 62.00733057 362.38396873 61.9956792 363.12562919 61.98367476 C366.33040559 62.02218083 368.18099892 62.20355277 370.74530578 64.1961596 C372.9535841 66.99581676 373.0634361 68.32320688 373.06586456 71.8536377 C373.07629555 72.94595451 373.08672654 74.03827133 373.09747362 75.16368866 C373.08855073 76.36328468 373.07962785 77.56288071 373.07043457 78.79882812 C373.07979451 80.71082378 373.07979451 80.71082378 373.08934355 82.66144562 C373.10607159 86.20211959 373.09777509 89.74236339 373.08539867 93.28303909 C373.07636456 97.10042515 373.09030973 100.91773618 373.10131836 104.73510742 C373.11912578 112.21434386 373.11525376 119.69341995 373.1036678 127.17266273 C373.09464246 133.24996891 373.09340556 139.32723007 373.09776306 145.40454102 C373.09837599 146.26875687 373.09898893 147.13297273 373.09962043 148.02337694 C373.1008993 149.77889189 373.10219616 151.53440683 373.1035108 153.28992176 C373.1149231 169.76007195 373.10179271 186.23013315 373.08030933 202.70026875 C373.06243775 216.83928624 373.06554168 230.97817238 373.08398438 245.1171875 C373.10537962 261.52749546 373.11382441 277.93772539 373.10153532 294.34804535 C373.10026109 296.09718322 373.09900361 297.84632109 373.09776306 299.59545898 C373.09683741 300.88644839 373.09683741 300.88644839 373.09589306 302.20351839 C373.09243611 308.27510224 373.09827591 314.34663669 373.10768127 320.41821289 C373.11888771 327.81521242 373.1158899 335.21204212 373.0945583 342.60902214 C373.08402947 346.3847374 373.07995691 350.16016927 373.09315491 353.93588257 C373.10723095 358.02456019 373.09045008 362.11251928 373.07043457 366.20117188 C373.07935746 367.4007679 373.08828034 368.60036392 373.09747362 369.83631134 C373.08182714 371.47478657 373.08182714 371.47478657 373.06586456 373.1463623 C373.06521515 374.09045708 373.06456574 375.03455185 373.06389666 376.00725555 C372.40626751 379.27672573 371.16317143 380.47188059 368.5625 382.5 C365.97995626 382.88479662 363.82650274 383.02463996 361.24798584 382.98101807 C360.50952872 382.98443577 359.77107159 382.98785347 359.01023698 382.99137473 C356.53475057 382.99796564 354.0603475 382.97595873 351.58496094 382.95410156 C349.81099473 382.95297334 348.03702665 382.95360645 346.26306152 382.95587158 C341.44510701 382.95702065 336.6275497 382.93348017 331.80968761 382.90557575 C326.77550958 382.8805942 321.74132274 382.87822266 316.70709229 382.87347412 C307.17315914 382.8610348 297.63940916 382.82820022 288.10555673 382.78807616 C277.25200829 382.74338823 266.39845117 382.7213789 255.54483366 382.70129442 C233.21726412 382.65946841 210.88994572 382.58610406 188.5625 382.5 C188.5625 398.34 188.5625 414.18 188.5625 430.5 C194.57984375 430.45359375 200.5971875 430.4071875 206.796875 430.359375 C210.60678806 430.33893915 214.41663364 430.31968361 218.2265625 430.3046875 C224.27520769 430.28076697 230.3236109 430.25245561 236.37207031 430.19824219 C241.24797468 430.15481161 246.1236196 430.1308686 250.99970245 430.12049103 C252.86088394 430.11309465 254.72205108 430.09865134 256.58312225 430.07707977 C259.18821504 430.04808256 261.79223298 430.04404241 264.39746094 430.04589844 C265.16854187 430.03151733 265.9396228 430.01713623 266.73406982 430.00231934 C270.18773299 430.02898063 272.1984716 430.23931876 275.04046631 432.2744751 C276.66512845 434.65006381 277.06699352 435.72695029 277.08007812 438.5625 C277.09899109 439.74392578 277.09899109 439.74392578 277.11828613 440.94921875 C277.10614075 442.21185547 277.10614075 442.21185547 277.09375 443.5 C277.0975769 444.37269531 277.10140381 445.24539063 277.10534668 446.14453125 C277.1080649 447.98699092 277.10070994 449.82948924 277.08398438 451.671875 C277.06257248 454.49045934 277.08378801 457.30649485 277.109375 460.125 C277.10673171 461.91667229 277.10160669 463.70834299 277.09375 465.5 C277.10184692 466.34175781 277.10994385 467.18351562 277.11828613 468.05078125 C277.09937317 469.23220703 277.09937317 469.23220703 277.08007812 470.4375 C277.07689575 471.12714844 277.07371338 471.81679688 277.07043457 472.52734375 C276.26133703 475.66962113 275.23154379 476.58577838 272.5625 478.5 C268.87613964 479.12001869 265.20886785 479.03889537 261.47851562 479.00793457 C260.33452553 479.01417453 259.19053543 479.0204145 258.01187897 479.02684355 C254.83598984 479.04005184 251.66071064 479.03527972 248.48483658 479.02289867 C245.06008887 479.0138606 241.63542458 479.02781168 238.21069336 479.03881836 C231.50148198 479.05662157 224.79244941 479.05275566 218.08323097 479.0411678 C212.6314001 479.0321408 207.1796194 479.03090628 201.7277832 479.03526306 C200.56467676 479.03618246 200.56467676 479.03618246 199.37807322 479.03712043 C197.80294226 479.03839931 196.22781132 479.03969616 194.6526804 479.0410108 C179.8764502 479.05242187 165.1003192 479.03929465 150.32410526 479.01780933 C137.64049965 478.99993785 124.95704047 479.00304181 112.2734375 479.02148438 C97.55073383 479.04288181 82.82811714 479.05132318 68.10540009 479.03903532 C66.53600567 479.0377611 64.96661124 479.03650362 63.3972168 479.03526306 C62.62500872 479.03464596 61.85280065 479.03402886 61.05719233 479.03339306 C55.61077954 479.02993676 50.16442184 479.03577449 44.71801758 479.04518127 C38.0822451 479.05639015 31.44666192 479.05338481 24.81091118 479.0320583 C21.42403619 479.02153269 18.03747703 479.01745129 14.65060425 479.03065491 C10.98224576 479.04152929 7.31478511 479.02794354 3.64648438 479.00793457 C2.5713987 479.01685746 1.49631302 479.02578034 0.38864899 479.03497362 C-6.79814067 478.95854454 -6.79814067 478.95854454 -10.09850311 476.5915451 C-11.5601622 474.30839871 -11.9426726 473.12588729 -11.95507812 470.4375 C-11.96768677 469.64988281 -11.98029541 468.86226563 -11.99328613 468.05078125 C-11.98518921 467.20902344 -11.97709229 466.36726563 -11.96875 465.5 C-11.97449036 464.19095703 -11.97449036 464.19095703 -11.98034668 462.85546875 C-11.9830649 461.01300908 -11.97570994 459.17051076 -11.95898438 457.328125 C-11.93757248 454.50954066 -11.95878801 451.69350515 -11.984375 448.875 C-11.98173171 447.08332771 -11.97660669 445.29165701 -11.96875 443.5 C-11.97684692 442.65824219 -11.98494385 441.81648438 -11.99328613 440.94921875 C-11.98067749 440.16160156 -11.96806885 439.37398438 -11.95507812 438.5625 C-11.95189575 437.87285156 -11.94871338 437.18320312 -11.94543457 436.47265625 C-11.16043217 433.42395669 -9.99265459 432.32974973 -7.4375 430.5 C-4.583465 430.12592676 -2.12183237 429.99275602 0.72753906 430.04589844 C1.5474231 430.04531433 2.36730713 430.04473022 3.21203613 430.04412842 C5.91783211 430.0469117 8.62252185 430.07801451 11.328125 430.109375 C13.2057027 430.11683654 15.08328819 430.12252988 16.96087646 430.12652588 C21.89959258 430.14178909 26.8378372 430.18107687 31.77636719 430.2253418 C37.70342261 430.27347887 43.6306358 430.29182524 49.55783081 430.31515503 C58.55971501 430.35392744 67.56056491 430.43057634 76.5625 430.5 C76.5625 414.66 76.5625 398.82 76.5625 382.5 C68.41481934 382.5314209 68.41481934 382.5314209 60.10253906 382.56347656 C42.18922152 382.62964958 24.27589928 382.67410016 6.36249161 382.70724869 C-4.50221733 382.7278874 -15.36681061 382.75603304 -26.23144531 382.80175781 C-35.69936901 382.84158546 -45.16720896 382.86742328 -54.63521409 382.87635398 C-59.65001938 382.88157563 -64.66458505 382.89387559 -69.67931366 382.92292023 C-74.39723505 382.95002499 -79.11481759 382.95845501 -83.83280945 382.95243073 C-85.56625966 382.95353318 -87.29972095 382.96151648 -89.03310394 382.9768219 C-91.39681688 382.99667314 -93.75924424 382.99195785 -96.12298584 382.98101807 C-96.81170517 382.99266943 -97.50042449 383.0043208 -98.2100141 383.01632524 C-101.35331414 382.97690032 -103.103677 382.76033004 -105.61249709 380.8038404 C-107.83036642 378.00405475 -107.93843239 376.68219187 -107.94086456 373.1463623 C-107.95129555 372.05404549 -107.96172654 370.96172867 -107.97247362 369.83631134 C-107.96355073 368.63671532 -107.95462785 367.43711929 -107.94543457 366.20117188 C-107.95167453 364.9265081 -107.9579145 363.65184433 -107.96434355 362.33855438 C-107.98107159 358.79788041 -107.97277509 355.25763661 -107.96039867 351.71696091 C-107.95136456 347.89957485 -107.96530973 344.08226382 -107.97631836 340.26489258 C-107.99412578 332.78565614 -107.99025376 325.30658005 -107.9786678 317.82733727 C-107.96964246 311.75003109 -107.96840556 305.67276993 -107.97276306 299.59545898 C-107.97337599 298.73124313 -107.97398893 297.86702727 -107.97462043 296.97662306 C-107.9758993 295.22110811 -107.97719616 293.46559317 -107.9785108 291.71007824 C-107.9899231 275.23992805 -107.97679271 258.76986685 -107.95530933 242.29973125 C-107.93743775 228.16071376 -107.94054168 214.02182762 -107.95898438 199.8828125 C-107.98037962 183.47250454 -107.98882441 167.06227461 -107.97653532 150.65195465 C-107.97526109 148.90281678 -107.97400361 147.15367891 -107.97276306 145.40454102 C-107.97214596 144.54388141 -107.97152886 143.68322181 -107.97089306 142.79648161 C-107.96743611 136.72489776 -107.97327591 130.65336331 -107.98268127 124.58178711 C-107.99388771 117.18478758 -107.9908899 109.78795788 -107.9695583 102.39097786 C-107.95902947 98.6152626 -107.95495691 94.83983073 -107.96815491 91.06411743 C-107.98223095 86.97543981 -107.96545008 82.88748072 -107.94543457 78.79882812 C-107.95435746 77.5992321 -107.96328034 76.39963608 -107.97247362 75.16368866 C-107.96204263 74.07137184 -107.95161164 72.97905502 -107.94086456 71.8536377 C-107.94021515 70.90954292 -107.93956574 69.96544815 -107.93889666 68.99274445 C-107.28063623 65.72013582 -106.04486431 64.52606483 -103.4375 62.5 C-100.75890535 62.11543693 -98.49447444 61.97568144 -95.8192749 62.01898193 C-95.04814936 62.01556423 -94.27702382 62.01214653 -93.48253083 62.00862527 C-90.89650533 62.00203229 -88.31151593 62.02404503 -85.72558594 62.04589844 C-83.87280298 62.04702661 -82.02001824 62.04639364 -80.16723633 62.04412842 C-75.13441965 62.04297917 -70.10198309 62.06652261 -65.06925488 62.09442425 C-59.81085822 62.1194028 -54.55245318 62.1217771 -49.29400635 62.12652588 C-39.33508537 62.13896608 -29.3763397 62.17180187 -19.41749597 62.21192384 C-8.08027968 62.25660902 3.25694491 62.27862041 14.59422731 62.29870558 C37.91708542 62.34053355 61.23977551 62.41171019 84.5625 62.5 C84.5625 51.94 84.5625 41.38 84.5625 30.5 C60.4725 30.5 36.3825 30.5 11.5625 30.5 C10.5725 33.47 10.5725 33.47 9.5625 36.5 C6.08116438 41.23057479 1.42820344 45.33929543 -4.4375 46.5 C-12.36133252 47.25645179 -19.96081123 47.64069019 -26.4375 42.5 C-32.16831331 37.46523689 -35.3182947 32.07525272 -36.4375 24.5 C-36.67653458 18.23313682 -35.07841842 12.61809103 -31.4375 7.5 C-23.19487158 -1.2599482 -11.67026077 -5.17152732 0 0 Z M-16.8125 17.125 C-18.92456506 20.21186432 -19.04945145 21.8282913 -18.4375 25.5 C-16.9375 28 -16.9375 28 -14.4375 29.5 C-10.7657913 30.11195145 -9.14936432 29.98706506 -6.0625 27.875 C-3.95043494 24.78813568 -3.82554855 23.1717087 -4.4375 19.5 C-5.9375 17 -5.9375 17 -8.4375 15.5 C-12.1092087 14.88804855 -13.72563568 15.01293494 -16.8125 17.125 Z M271.1875 17.125 C269.07543494 20.21186432 268.95054855 21.8282913 269.5625 25.5 C271.0625 28 271.0625 28 273.5625 29.5 C277.2342087 30.11195145 278.85063568 29.98706506 281.9375 27.875 C284.04956506 24.78813568 284.17445145 23.1717087 283.5625 19.5 C282.0625 17 282.0625 17 279.5625 15.5 C275.8907913 14.88804855 274.27436432 15.01293494 271.1875 17.125 Z M-91.4375 78.5 C-91.4375 162.98 -91.4375 247.46 -91.4375 334.5 C56.4025 334.5 204.2425 334.5 356.5625 334.5 C356.5625 250.02 356.5625 165.54 356.5625 78.5 C298.4825 78.5 240.4025 78.5 180.5625 78.5 C180.5625 104.24 180.5625 129.98 180.5625 156.5 C187.1625 163.1 193.7625 169.7 200.5625 176.5 C202.9344466 181.2438932 203.12492469 182.48379441 201.5625 187.5 C199.34251924 190.04546666 196.99805359 192.31426421 194.49609375 194.58203125 C193.85800781 195.21496094 193.21992188 195.84789062 192.5625 196.5 C192.5625 197.16 192.5625 197.82 192.5625 198.5 C193.68269531 198.53738281 194.80289062 198.57476562 195.95703125 198.61328125 C197.4297209 198.67894257 198.90237566 198.74538986 200.375 198.8125 C201.11298828 198.83505859 201.85097656 198.85761719 202.61132812 198.88085938 C208.04685423 199.15140592 208.04685423 199.15140592 210.2565918 200.64526367 C212.11408788 203.28340123 212.07828289 205.49356183 212.25 208.6875 C212.34861328 210.31751953 212.34861328 210.31751953 212.44921875 211.98046875 C212.48660156 212.81191406 212.52398437 213.64335937 212.5625 214.5 C223.0369295 214.6853965 233.51096854 214.82752418 243.98670483 214.91449738 C248.85118258 214.95624213 253.71453763 215.01285479 258.57836914 215.10351562 C263.27281521 215.19047107 267.96618198 215.2382795 272.66137123 215.25901794 C274.45208038 215.27379512 276.24273068 215.3026537 278.03297997 215.34584045 C287.40370885 216.01755076 287.40370885 216.01755076 295.69107056 212.7668457 C296.96598985 210.70672447 297.72016374 208.76009365 298.5625 206.5 C302.50480838 202.1282603 306.99951009 199.76334185 312.83203125 199.1640625 C321.16651339 199.07217185 326.88064524 199.46096282 333.26953125 204.97265625 C338.09552617 209.93955613 340.38203375 215.95826608 340.65625 222.859375 C340.15633643 230.10812176 337.53999473 236.00268448 332.125 240.875 C325.40894572 246.45353233 317.93545666 246.24910937 309.5625 245.5 C303.27567598 243.84661479 299.18370339 239.75881766 295.5625 234.5 C294.9025 233.18 294.2425 231.86 293.5625 230.5 C266.8325 230.5 240.1025 230.5 212.5625 230.5 C212.2325 234.46 211.9025 238.42 211.5625 242.5 C207.8678724 246.1946276 205.29926168 246.03697672 200.375 246.1875 C199.62541016 246.22166016 198.87582031 246.25582031 198.10351562 246.29101562 C196.25703162 246.37334294 194.40979006 246.43835281 192.5625 246.5 C193.94580274 249.69063296 195.52126826 251.5349142 198.125 253.8125 C200.72893339 256.36195779 201.55753515 257.48510545 202.75 261.0625 C202.29720873 269.36367328 194.10317546 275.25681605 188.5625 280.75 C187.66015625 281.66007813 186.7578125 282.57015625 185.828125 283.5078125 C184.52101563 284.81105469 184.52101563 284.81105469 183.1875 286.140625 C182.39601563 286.92985352 181.60453125 287.71908203 180.7890625 288.53222656 C177.61376663 291.33846392 175.61697606 292.437972 171.375 292.6875 C166.34847671 291.1218616 163.96384296 288.27669679 160.48046875 284.43359375 C159.84753906 283.79550781 159.21460938 283.15742188 158.5625 282.5 C157.9025 282.5 157.2425 282.5 156.5625 282.5 C156.50642578 284.18029297 156.50642578 284.18029297 156.44921875 285.89453125 C156.38355743 287.3672209 156.31711014 288.83987566 156.25 290.3125 C156.21616211 291.41948242 156.21616211 291.41948242 156.18164062 292.54882812 C155.90839101 298.03866129 155.90839101 298.03866129 154.27832031 300.21279907 C151.20874989 302.51557744 147.31870245 301.92482484 143.625 301.8984375 C142.74851807 301.90130768 141.87203613 301.90417786 140.96899414 301.90713501 C139.11636712 301.90917598 137.26371858 301.90364378 135.41113281 301.89111328 C132.57307821 301.87505984 129.73644773 301.89096055 126.8984375 301.91015625 C125.09895519 301.90817382 123.29947376 301.90433016 121.5 301.8984375 C120.64994385 301.90451019 119.7998877 301.91058289 118.92407227 301.9168396 C113.02411009 301.84629788 113.02411009 301.84629788 110.84667969 300.21279907 C108.66825408 297.30728251 108.98211372 293.81664871 108.875 290.3125 C108.84083984 289.56291016 108.80667969 288.81332031 108.77148438 288.04101562 C108.68915706 286.19453162 108.62414719 284.34729006 108.5625 282.5 C105.37186704 283.88330274 103.5275858 285.45876826 101.25 288.0625 C98.70054221 290.66643339 97.57739455 291.49503515 94 292.6875 C85.69882672 292.23470873 79.80568395 284.04067546 74.3125 278.5 C73.40242187 277.59765625 72.49234375 276.6953125 71.5546875 275.765625 C70.25144531 274.45851563 70.25144531 274.45851563 68.921875 273.125 C68.13264648 272.33351563 67.34341797 271.54203125 66.53027344 270.7265625 C63.72403608 267.55126663 62.624528 265.55447606 62.375 261.3125 C63.9406384 256.28597671 66.78580321 253.90134296 70.62890625 250.41796875 C71.26699219 249.78503906 71.90507812 249.15210938 72.5625 248.5 C72.5625 247.84 72.5625 247.18 72.5625 246.5 C71.44230469 246.46261719 70.32210937 246.42523438 69.16796875 246.38671875 C67.6952791 246.32105743 66.22262434 246.25461014 64.75 246.1875 C63.64301758 246.15366211 63.64301758 246.15366211 62.51367188 246.11914062 C57.07814577 245.84859408 57.07814577 245.84859408 54.8684082 244.35473633 C53.01091212 241.71659877 53.04671711 239.50643817 52.875 236.3125 C52.77638672 234.68248047 52.77638672 234.68248047 52.67578125 233.01953125 C52.61970703 231.77236328 52.61970703 231.77236328 52.5625 230.5 C42.0880705 230.3146035 31.61403146 230.17247582 21.13829517 230.08550262 C16.27381742 230.04375787 11.41046237 229.98714521 6.54663086 229.89648438 C1.85218479 229.80952893 -2.84118198 229.7617205 -7.53637123 229.74098206 C-9.32708038 229.72620488 -11.11773068 229.6973463 -12.90797997 229.65415955 C-22.27870885 228.98244924 -22.27870885 228.98244924 -30.56607056 232.2331543 C-31.84098985 234.29327553 -32.59516374 236.23990635 -33.4375 238.5 C-37.37980838 242.8717397 -41.87451009 245.23665815 -47.70703125 245.8359375 C-56.04151339 245.92782815 -61.75564524 245.53903718 -68.14453125 240.02734375 C-72.97052617 235.06044387 -75.25703375 229.04173392 -75.53125 222.140625 C-75.03133643 214.89187824 -72.41499473 208.99731552 -67 204.125 C-60.28394572 198.54646767 -52.81045666 198.75089063 -44.4375 199.5 C-38.15067598 201.15338521 -34.05870339 205.24118234 -30.4375 210.5 C-29.4475 212.48 -29.4475 212.48 -28.4375 214.5 C-1.7075 214.5 25.0225 214.5 52.5625 214.5 C52.8925 210.54 53.2225 206.58 53.5625 202.5 C57.2571276 198.8053724 59.82573832 198.96302328 64.75 198.8125 C65.49958984 198.77833984 66.24917969 198.74417969 67.02148438 198.70898438 C68.86796838 198.62665706 70.71520994 198.56164719 72.5625 198.5 C71.17919726 195.30936704 69.60373174 193.4650858 67 191.1875 C64.39606661 188.63804221 63.56746485 187.51489455 62.375 183.9375 C62.96532327 173.11490665 79.63308665 161.42941335 84.5625 156.5 C84.5625 130.76 84.5625 105.02 84.5625 78.5 C26.4825 78.5 -31.5975 78.5 -91.4375 78.5 Z M100.5625 78.5 C100.38792362 92.21672295 100.38792362 92.21672295 100.26953125 105.93359375 C100.23369139 111.53013322 100.19133829 117.12608257 100.10986328 122.72216797 C100.04457203 127.23502431 100.00877341 131.74724773 99.99323654 136.26054001 C99.98216758 137.98057391 99.96055155 139.70057394 99.92811966 141.42033768 C99.88442297 143.83387774 99.87857089 146.24481812 99.88134766 148.65869141 C99.859776 149.36647736 99.83820435 150.07426331 99.815979 150.80349731 C99.8669119 154.90723375 100.70728127 157.10440214 103.48007202 159.99008179 C106.15847209 162.71047248 106.15847209 162.71047248 108.5625 162.5 C108.61857422 160.81970703 108.61857422 160.81970703 108.67578125 159.10546875 C108.74144257 157.6327791 108.80788986 156.16012434 108.875 154.6875 C108.89755859 153.94951172 108.92011719 153.21152344 108.94335938 152.45117188 C109.21660899 146.96133871 109.21660899 146.96133871 110.84667969 144.78720093 C113.91625011 142.48442256 117.80629755 143.07517516 121.5 143.1015625 C122.37648193 143.09869232 123.25296387 143.09582214 124.15600586 143.09286499 C126.00863288 143.09082402 127.86128142 143.09635622 129.71386719 143.10888672 C132.55192179 143.12494016 135.38855227 143.10903945 138.2265625 143.08984375 C140.02604481 143.09182618 141.82552624 143.09566984 143.625 143.1015625 C144.47505615 143.09548981 145.3251123 143.08941711 146.20092773 143.0831604 C152.10088991 143.15370212 152.10088991 143.15370212 154.27832031 144.78720093 C156.45674592 147.69271749 156.14288628 151.18335129 156.25 154.6875 C156.28416016 155.43708984 156.31832031 156.18667969 156.35351562 156.95898438 C156.43584294 158.80546838 156.50085281 160.65270994 156.5625 162.5 C159.97835146 161.03606366 162.25419594 159.43193201 164.5625 156.5 C164.9368979 153.8207818 165.07037519 151.55917266 165.01660156 148.88574219 C165.01718567 148.12437958 165.01776978 147.36301697 165.01837158 146.57858276 C165.01558973 144.06754614 164.98449452 141.55770366 164.953125 139.046875 C164.94566293 137.30381926 164.93996984 135.56075512 164.93597412 133.81768799 C164.92071501 129.23405724 164.88143099 124.65093498 164.8371582 120.06750488 C164.78900989 114.56596383 164.77067278 109.06425257 164.74734497 103.56256104 C164.7085799 95.20802057 164.63192877 86.8545954 164.5625 78.5 C143.4425 78.5 122.3225 78.5 100.5625 78.5 Z M124.5625 158.5 C124.35287296 163.30079919 124.35287296 163.30079919 124.17456055 168.1027832 C124.02633077 170.79580446 123.88238153 172.98326829 122.4453125 175.3046875 C119.67127822 177.0657964 116.8308531 178.17399518 113.75 179.3125 C112.54730469 179.77269531 111.34460938 180.23289063 110.10546875 180.70703125 C106.02317793 181.62070825 104.28800814 181.31846481 100.5625 179.5 C98.4453125 177.7734375 98.4453125 177.7734375 96.6875 175.875 C96.09195313 175.24335938 95.49640625 174.61171875 94.8828125 173.9609375 C94.44710937 173.47882813 94.01140625 172.99671875 93.5625 172.5 C89.42628916 175.8810038 85.74933431 179.16590534 82.5625 183.5 C83.05621094 183.98210937 83.54992187 184.46421875 84.05859375 184.9609375 C84.69925781 185.59257812 85.33992188 186.22421875 86 186.875 C86.63808594 187.50148437 87.27617187 188.12796875 87.93359375 188.7734375 C90.67024655 191.67415821 90.95094811 194.10519451 90.921875 198.06640625 C90.11144371 203.55443551 87.49613428 209.56636572 83.5625 213.5 C80.98564322 213.80690654 78.52146697 214.01014493 75.9375 214.125 C72.286875 214.310625 72.286875 214.310625 68.5625 214.5 C68.5625 219.78 68.5625 225.06 68.5625 230.5 C70.810625 230.603125 73.05875 230.70625 75.375 230.8125 C82.00198563 231.11649017 82.00198563 231.11649017 84.34375 232.71875 C87.73605314 237.67673151 90.74855131 243.64005018 91.3125 249.6875 C90.26631769 255.00559343 87.39797927 257.82107091 83.5625 261.5 C84.97094718 264.71524305 86.66594786 266.82183868 89.1875 269.25 C89.81914062 269.86359375 90.45078125 270.4771875 91.1015625 271.109375 C91.58367187 271.56828125 92.06578125 272.0271875 92.5625 272.5 C93.00980469 272.10167969 93.45710938 271.70335937 93.91796875 271.29296875 C101.40426741 264.73248101 101.40426741 264.73248101 104.5625 263.5 C111.05397226 264.47372084 118.83479254 266.77229254 123.5625 271.5 C123.86940654 274.07685678 124.07264493 276.54103303 124.1875 279.125 C124.31125 281.55875 124.435 283.9925 124.5625 286.5 C129.5125 286.5 134.4625 286.5 139.5625 286.5 C139.624375 284.458125 139.68625 282.41625 139.75 280.3125 C140.27395607 273.95608557 140.27395607 273.95608557 142.5 270.4375 C148.47140446 266.65967269 155.38399089 263.03771111 162.5625 264.5 C164.81152003 266.18467485 166.78692984 267.97422527 168.765625 269.96875 C170.54959057 271.82430425 170.54959057 271.82430425 173.5625 271.5 C175.91916976 269.50842351 175.91916976 269.50842351 178.25 267 C179.05824219 266.1646875 179.86648438 265.329375 180.69921875 264.46875 C181.62154297 263.49421875 181.62154297 263.49421875 182.5625 262.5 C182.15257812 262.02949219 181.74265625 261.55898438 181.3203125 261.07421875 C180.78148437 260.45160156 180.24265625 259.82898438 179.6875 259.1875 C179.15382813 258.57261719 178.62015625 257.95773437 178.0703125 257.32421875 C175.172797 253.81867538 174.0739774 251.4954688 174.16796875 246.8984375 C175.06894041 241.42124344 177.62289434 235.43960566 181.5625 231.5 C184.13935678 231.19309346 186.60353303 230.98985507 189.1875 230.875 C192.838125 230.689375 192.838125 230.689375 196.5625 230.5 C196.5625 225.22 196.5625 219.94 196.5625 214.5 C191.76169398 214.3298109 191.76169398 214.3298109 186.9597168 214.20214844 C183.85931784 214.04436732 182.00995253 213.92470071 179.71875 211.75 C173.12614788 198.92115263 173.12614788 198.92115263 174.5625 191.5 C176.94761433 188.48231187 179.62074658 185.96897162 182.5625 183.5 C179.1814962 179.36378916 175.89659466 175.68683431 171.5625 172.5 C171.08039063 172.99371094 170.59828125 173.48742187 170.1015625 173.99609375 C169.15410156 174.95708984 169.15410156 174.95708984 168.1875 175.9375 C167.56101562 176.57558594 166.93453125 177.21367187 166.2890625 177.87109375 C163.38834179 180.60774655 160.95730549 180.88844811 156.99609375 180.859375 C151.50806449 180.04894371 145.49613428 177.43363428 141.5625 173.5 C141.25559346 170.92314322 141.05235507 168.45896697 140.9375 165.875 C140.81375 163.44125 140.69 161.0075 140.5625 158.5 C135.2825 158.5 130.0025 158.5 124.5625 158.5 Z M-56.8125 217.125 C-58.92456506 220.21186432 -59.04945145 221.8282913 -58.4375 225.5 C-56.9375 228 -56.9375 228 -54.4375 229.5 C-50.7657913 230.11195145 -49.14936432 229.98706506 -46.0625 227.875 C-43.95043494 224.78813568 -43.82554855 223.1717087 -44.4375 219.5 C-45.9375 217 -45.9375 217 -48.4375 215.5 C-52.1092087 214.88804855 -53.72563568 215.01293494 -56.8125 217.125 Z M311.1875 217.125 C309.07543494 220.21186432 308.95054855 221.8282913 309.5625 225.5 C311.0625 228 311.0625 228 313.5625 229.5 C317.2342087 230.11195145 318.85063568 229.98706506 321.9375 227.875 C324.04956506 224.78813568 324.17445145 223.1717087 323.5625 219.5 C322.0625 217 322.0625 217 319.5625 215.5 C315.8907913 214.88804855 314.27436432 215.01293494 311.1875 217.125 Z M-91.4375 350.5 C-91.4375 355.78 -91.4375 361.06 -91.4375 366.5 C56.4025 366.5 204.2425 366.5 356.5625 366.5 C356.5625 361.22 356.5625 355.94 356.5625 350.5 C208.7225 350.5 60.8825 350.5 -91.4375 350.5 Z M92.5625 382.5 C92.5625 398.34 92.5625 414.18 92.5625 430.5 C118.9625 430.5 145.3625 430.5 172.5625 430.5 C172.5625 414.66 172.5625 398.82 172.5625 382.5 C146.1625 382.5 119.7625 382.5 92.5625 382.5 Z M4.5625 446.5 C4.5625 451.78 4.5625 457.06 4.5625 462.5 C89.0425 462.5 173.5225 462.5 260.5625 462.5 C260.5625 457.22 260.5625 451.94 260.5625 446.5 C176.0825 446.5 91.6025 446.5 4.5625 446.5 Z " fill="#000000" transform="translate(123.4375,17.5)"/>
<path d="M0 0 C1.10794922 -0.01260864 2.21589844 -0.02521729 3.35742188 -0.03820801 C4.54916016 -0.03011108 5.74089844 -0.02201416 6.96875 -0.01367188 C8.19658203 -0.01749878 9.42441406 -0.02132568 10.68945312 -0.02526855 C13.28516459 -0.02799029 15.88090336 -0.02061099 18.4765625 -0.00390625 C22.45374599 0.01749738 26.42912282 -0.0037015 30.40625 -0.02929688 C32.92708733 -0.02665365 35.44792353 -0.02152878 37.96875 -0.01367188 C39.16048828 -0.0217688 40.35222656 -0.02986572 41.58007812 -0.03820801 C43.24200195 -0.01929504 43.24200195 -0.01929504 44.9375 0 C46.39833008 0.00477356 46.39833008 0.00477356 47.88867188 0.00964355 C51.19021681 0.65961178 52.38452655 1.93295409 54.46875 4.51757812 C55 6.51757812 55 6.51757812 54.96875 8.51757812 C54.98421875 9.50757812 54.98421875 9.50757812 55 10.51757812 C54.17610266 13.6193093 53.07735113 14.60656901 50.46875 16.51757812 C47.12946699 17.08354155 43.83141243 16.98225827 40.453125 16.90820312 C39.48215881 16.90254333 38.51119263 16.89688354 37.51080322 16.89105225 C34.41294831 16.86868124 31.31625467 16.81848285 28.21875 16.76757812 C26.11720422 16.74751409 24.01564028 16.72926315 21.9140625 16.71289062 C16.7651783 16.66881393 11.61716097 16.59978071 6.46875 16.51757812 C6.47763245 17.36060486 6.48651489 18.20363159 6.4956665 19.07220459 C6.5758205 27.01762006 6.63671841 34.96289971 6.67599869 42.90862656 C6.69687211 46.99362182 6.72518463 51.07828297 6.77050781 55.16308594 C6.8139753 59.10532158 6.83788895 63.0472359 6.84825897 66.98969269 C6.85564882 68.49362497 6.87007967 69.99753969 6.89167023 71.50133514 C6.92071812 73.60837272 6.92470571 75.71408341 6.92285156 77.82128906 C6.93173401 79.02041931 6.94061646 80.21954956 6.94976807 81.45501709 C6.46875 84.51757812 6.46875 84.51757812 4.78607178 86.90374756 C1.94517088 88.8822094 0.38098412 89.02390396 -3.0625 89.03515625 C-4.17044922 89.04776489 -5.27839844 89.06037354 -6.41992188 89.07336426 C-7.61166016 89.06526733 -8.80339844 89.05717041 -10.03125 89.04882812 C-11.87299805 89.05456848 -11.87299805 89.05456848 -13.75195312 89.0604248 C-16.34766459 89.06314654 -18.94340336 89.05576724 -21.5390625 89.0390625 C-25.51624599 89.01765887 -29.49162282 89.03885775 -33.46875 89.06445312 C-35.98958733 89.0618099 -38.51042353 89.05668503 -41.03125 89.04882812 C-42.81885742 89.06097351 -42.81885742 89.06097351 -44.64257812 89.07336426 C-45.75052734 89.06075562 -46.85847656 89.04814697 -48 89.03515625 C-48.97388672 89.03197388 -49.94777344 89.0287915 -50.95117188 89.0255127 C-54.25271681 88.37554447 -55.44702655 87.10220216 -57.53125 84.51757812 C-58.0625 82.51757812 -58.0625 82.51757812 -58.03125 80.51757812 C-58.04671875 79.52757812 -58.04671875 79.52757812 -58.0625 78.51757812 C-57.23860266 75.41584695 -56.13985113 74.42858724 -53.53125 72.51757812 C-50.19196699 71.9516147 -46.89391243 72.05289798 -43.515625 72.12695312 C-42.54465881 72.13261292 -41.57369263 72.13827271 -40.57330322 72.144104 C-37.47544831 72.16647501 -34.37875467 72.2166734 -31.28125 72.26757812 C-29.17970422 72.28764216 -27.07814028 72.3058931 -24.9765625 72.32226562 C-19.8276783 72.36634232 -14.67966097 72.43537554 -9.53125 72.51757812 C-9.54013245 71.67455139 -9.54901489 70.83152466 -9.5581665 69.96295166 C-9.6383205 62.01753619 -9.69921841 54.07225654 -9.73849869 46.12652969 C-9.75937211 42.04153443 -9.78768463 37.95687328 -9.83300781 33.87207031 C-9.8764753 29.92983467 -9.90038895 25.98792035 -9.91075897 22.04546356 C-9.91814882 20.54153128 -9.93257967 19.03761656 -9.95417023 17.53382111 C-9.98321812 15.42678353 -9.98720571 13.32107284 -9.98535156 11.21386719 C-9.99423401 10.01473694 -10.00311646 8.81560669 -10.01226807 7.58013916 C-9.53125 4.51757812 -9.53125 4.51757812 -7.84857178 2.13140869 C-5.00767088 0.15294685 -3.44348412 0.01125229 0 0 Z " fill="#000000" transform="translate(409.53125,111.482421875)"/>
<path d="M0 0 C1.10794922 -0.01260864 2.21589844 -0.02521729 3.35742188 -0.03820801 C4.54916016 -0.03011108 5.74089844 -0.02201416 6.96875 -0.01367188 C8.19658203 -0.01749878 9.42441406 -0.02132568 10.68945312 -0.02526855 C13.28516459 -0.02799029 15.88090336 -0.02061099 18.4765625 -0.00390625 C22.45374599 0.01749738 26.42912282 -0.0037015 30.40625 -0.02929688 C32.92708733 -0.02665365 35.44792353 -0.02152878 37.96875 -0.01367188 C39.16048828 -0.0217688 40.35222656 -0.02986572 41.58007812 -0.03820801 C43.24200195 -0.01929504 43.24200195 -0.01929504 44.9375 0 C45.91138672 0.00318237 46.88527344 0.00636475 47.88867188 0.00964355 C51.31724418 0.68461939 52.4607977 1.67014458 54.46875 4.51757812 C54.94976807 7.58013916 54.94976807 7.58013916 54.92285156 11.21386719 C54.92343567 11.87769409 54.92401978 12.541521 54.92462158 13.22546387 C54.92184265 15.41191551 54.89076328 17.59699075 54.859375 19.78320312 C54.85191184 21.30205541 54.84621926 22.82091735 54.84222412 24.33978271 C54.82697341 28.33161138 54.78769723 32.3228551 54.7434082 36.31445312 C54.70244289 40.38989347 54.68421046 44.46542861 54.6640625 48.54101562 C54.62120175 56.53347114 54.55295804 64.52545181 54.46875 72.51757812 C55.78069336 72.49663086 57.09263672 72.47568359 58.44433594 72.45410156 C63.31206344 72.38169842 68.17974335 72.33577699 73.04785156 72.29785156 C75.15470382 72.27773687 77.26150025 72.25044145 79.36816406 72.21582031 C82.39662447 72.16729644 85.42434678 72.14460796 88.453125 72.12695312 C89.86582672 72.09598541 89.86582672 72.09598541 91.30706787 72.06439209 C97.84707075 72.06214832 97.84707075 72.06214832 101.06152344 74.41699219 C102.5782814 76.68107712 103.01094507 77.81709375 102.96875 80.51757812 C102.98421875 81.50757813 102.98421875 81.50757813 103 82.51757812 C102.2245785 85.43681202 100.78007479 86.6111988 98.46875 88.51757812 C95.88867188 89.0255127 95.88867188 89.0255127 92.9375 89.03515625 C91.82955078 89.04776489 90.72160156 89.06037354 89.58007812 89.07336426 C88.38833984 89.06526733 87.19660156 89.05717041 85.96875 89.04882812 C84.12700195 89.05456848 84.12700195 89.05456848 82.24804688 89.0604248 C79.65233541 89.06314654 77.05659664 89.05576724 74.4609375 89.0390625 C70.48375401 89.01765887 66.50837718 89.03885775 62.53125 89.06445312 C60.01041267 89.0618099 57.48957647 89.05668503 54.96875 89.04882812 C53.18114258 89.06097351 53.18114258 89.06097351 51.35742188 89.07336426 C50.24947266 89.06075562 49.14152344 89.04814697 48 89.03515625 C47.02611328 89.03197388 46.05222656 89.0287915 45.04882812 89.0255127 C41.62025582 88.35053686 40.4767023 87.36501167 38.46875 84.51757812 C37.98773193 81.45501709 37.98773193 81.45501709 38.01464844 77.82128906 C38.01406433 77.15746216 38.01348022 76.49363525 38.01287842 75.80969238 C38.01565735 73.62324074 38.04673672 71.4381655 38.078125 69.25195312 C38.08558816 67.73310084 38.09128074 66.2142389 38.09527588 64.69537354 C38.11052659 60.70354487 38.14980277 56.71230115 38.1940918 52.72070312 C38.23505711 48.64526278 38.25328954 44.56972764 38.2734375 40.49414062 C38.31629825 32.50168511 38.38454196 24.50970444 38.46875 16.51757812 C36.50083496 16.54899902 36.50083496 16.54899902 34.49316406 16.58105469 C29.62543656 16.65345783 24.75775665 16.69937926 19.88964844 16.73730469 C17.78279618 16.75741938 15.67599975 16.7847148 13.56933594 16.81933594 C10.54087553 16.86785981 7.51315322 16.89054829 4.484375 16.90820312 C3.07167328 16.93917084 3.07167328 16.93917084 1.63043213 16.97076416 C-4.90957075 16.97300793 -4.90957075 16.97300793 -8.12402344 14.61816406 C-9.6407814 12.35407913 -10.07344507 11.2180625 -10.03125 8.51757812 C-10.04671875 7.52757813 -10.04671875 7.52757813 -10.0625 6.51757812 C-8.67664018 1.3002235 -4.95665502 0.01619688 0 0 Z " fill="#000000" transform="translate(57.53125,111.482421875)"/>
<path d="M0 0 C8.34468007 4.97590182 13.53387008 11.86345977 16.109375 21.2578125 C17.10789012 32.35758522 16.45884702 41.9922991 9.359375 51.0703125 C3.70168013 57.1280464 -3.34488592 60.84888618 -11.625 61.59375 C-22.24007794 61.83258597 -31.18444828 60.63001931 -39.2890625 53.1015625 C-47.32833275 43.84659773 -48.61982016 35.03008751 -48.06982422 23.20654297 C-47.37894187 15.69343275 -43.42276801 9.23166585 -37.890625 4.2578125 C-27.15195714 -3.81766573 -12.32399863 -5.91386512 0 0 Z M-29.265625 20.8828125 C-31.46970393 25.46051489 -31.6877889 29.26333661 -30.890625 34.2578125 C-28.56093569 39.09639798 -25.72921048 41.92812319 -20.890625 44.2578125 C-15.89614911 45.0549764 -12.09332739 44.83689143 -7.515625 42.6328125 C-3.93154787 39.39007605 -1.29527259 36.79305354 -0.5078125 31.859375 C-0.25178581 26.17558256 -0.95435568 22.60842595 -4.890625 18.2578125 C-9.24123845 14.32154318 -12.80839506 13.61897331 -18.4921875 13.875 C-23.42586604 14.66246009 -26.02288855 17.29873537 -29.265625 20.8828125 Z " fill="#000000" transform="translate(271.890625,210.7421875)"/>
</svg>
